<?xml version="1.0" standalone="no"?>
<!DOCTYPE svg PUBLIC "-//W3C//DTD SVG 20010904//EN"
 "http://www.w3.org/TR/2001/REC-SVG-20010904/DTD/svg10.dtd">
<svg version="1.0" xmlns="http://www.w3.org/2000/svg"
 width="300.000000pt" height="300.000000pt" viewBox="0 0 300.000000 300.000000"
 preserveAspectRatio="xMidYMid meet">
<metadata>
Created by potrace 1.10, written by Peter Selinger 2001-2011
</metadata>
<g transform="translate(0.000000,300.000000) scale(0.100000,-0.100000)"
fill="#000000" stroke="none">
<path d="M1295 2845 c-298 -47 -542 -171 -755 -385 -124 -124 -191 -219 -265
-372 -181 -377 -181 -799 0 -1176 74 -153 141 -248 265 -372 179 -179 365
-287 618 -358 l72 -20 0 549 0 549 -195 0 -195 0 0 225 0 226 194 -3 194 -3 6
225 c7 264 15 320 55 407 38 81 132 180 211 222 126 67 318 90 573 67 l87 -8
0 -201 0 -202 -157 0 c-141 0 -163 -2 -205 -22 -58 -26 -76 -53 -94 -140 -20
-98 -19 -316 2 -337 13 -14 46 -16 220 -15 113 1 207 -1 210 -4 3 -2 -8 -102
-23 -221 l-27 -216 -193 0 -193 0 0 -555 0 -555 28 6 c241 55 387 115 552 228
96 65 270 240 336 336 103 151 181 334 221 520 25 119 25 401 0 520 -40 186
-118 369 -221 520 -66 97 -240 271 -338 338 -102 69 -280 154 -393 187 -184
53 -411 69 -590 40z m435 -35 c25 -6 56 -13 70 -15 94 -20 320 -110 320 -127
0 -5 -78 -6 -172 -4 -211 6 -295 -4 -407 -48 -112 -45 -217 -139 -271 -247
-49 -95 -60 -159 -66 -391 -4 -117 -11 -219 -16 -225 -8 -10 -54 -13 -168 -13
-144 0 -160 -2 -184 -21 l-26 -20 0 -213 c0 -276 -16 -256 205 -256 147 0 165
-2 174 -18 5 -10 10 -216 11 -504 1 -544 6 -511 -73 -482 -23 8 -53 17 -67 20
-43 9 -213 95 -300 153 -158 104 -351 318 -435 483 -15 29 -31 61 -36 71 -32
61 -81 228 -101 337 -18 108 -16 345 6 450 79 392 298 702 640 908 124 75 311
141 471 167 91 15 354 12 425 -5z m545 -234 c78 -52 235 -204 283 -273 200
-291 278 -536 267 -841 -6 -169 -17 -233 -67 -387 -33 -100 -128 -285 -178
-348 -171 -214 -319 -337 -514 -427 -131 -61 -275 -105 -313 -95 l-22 5 0 497
c0 334 4 502 11 510 8 10 54 13 174 13 151 0 166 2 184 20 11 11 21 27 21 35
1 8 2 18 3 23 1 4 6 39 10 77 5 39 10 79 12 90 2 11 9 60 14 110 18 150 0 161
-249 150 -202 -9 -195 -16 -188 157 7 191 24 239 96 271 40 19 63 21 188 19
197 -2 185 -18 181 244 -3 229 -11 216 87 150z"/>
</g>
</svg>
