<?xml version="1.0" standalone="no"?>
<!DOCTYPE svg PUBLIC "-//W3C//DTD SVG 20010904//EN"
 "http://www.w3.org/TR/2001/REC-SVG-20010904/DTD/svg10.dtd">
<svg version="1.0" xmlns="http://www.w3.org/2000/svg"
 width="300.000000pt" height="300.000000pt" viewBox="0 0 300.000000 300.000000"
 preserveAspectRatio="xMidYMid meet">
<metadata>
Created by potrace 1.10, written by Peter Selinger 2001-2011
</metadata>
<g transform="translate(0.000000,300.000000) scale(0.100000,-0.100000)"
fill="#000000" stroke="none">
<path d="M505 2975 c-118 -26 -216 -81 -309 -173 -114 -114 -174 -249 -181
-407 -2 -49 -2 -79 1 -65 32 167 80 303 130 370 35 46 155 160 169 160 7 0 15
4 17 8 7 18 124 64 229 91 111 28 112 29 59 29 -30 0 -82 -6 -115 -13z"/>
<path d="M2345 2980 c131 -19 325 -85 325 -111 0 -6 4 -8 9 -4 13 7 163 -141
187 -185 10 -19 24 -40 31 -47 17 -19 42 -89 69 -198 l24 -100 -4 76 c-8 143
-73 283 -182 393 -119 118 -251 175 -419 181 -87 4 -92 3 -40 -5z"/>
<path d="M1070 2633 c-234 -10 -412 -78 -528 -202 -40 -44 -112 -153 -112
-171 0 -5 -5 -21 -12 -37 -15 -37 -14 -35 -34 -138 -15 -77 -17 -159 -18 -580
-1 -355 3 -511 12 -564 50 -294 208 -471 486 -547 86 -23 435 -37 811 -31 398
7 475 17 612 82 137 66 270 226 305 365 5 19 11 44 13 55 22 90 27 204 27 611
0 422 -9 608 -31 674 -5 14 -17 53 -26 88 -10 34 -22 62 -27 62 -4 0 -8 5 -8
12 0 13 -75 113 -110 146 -37 34 -127 92 -144 92 -8 0 -16 4 -18 8 -6 14 -143
52 -229 63 -73 10 -811 18 -969 12z m891 -33 c219 -16 343 -65 460 -181 73
-72 127 -169 154 -274 24 -93 35 -301 35 -650 -1 -354 -11 -549 -35 -640 -54
-209 -199 -360 -408 -424 -99 -30 -280 -41 -677 -41 -384 0 -553 10 -650 38
-171 50 -301 156 -369 304 -67 143 -72 181 -78 648 -9 726 16 869 187 1040
110 110 246 166 437 179 160 12 788 12 944 1z"/>
<path d="M1050 2400 c-119 -8 -173 -21 -243 -56 -99 -50 -164 -144 -195 -278
-24 -105 -24 -1026 0 -1132 42 -185 143 -281 343 -325 46 -10 178 -13 550 -13
413 0 501 3 561 16 186 42 293 157 326 348 18 105 18 974 0 1080 -24 143 -97
252 -205 307 -98 49 -149 54 -607 58 -234 2 -472 0 -530 -5z m920 -31 c0 -7 9
-9 23 -5 28 7 157 -27 195 -52 43 -27 112 -94 112 -109 0 -7 4 -13 8 -13 11 0
37 -60 53 -120 12 -44 20 -819 10 -1020 -7 -136 -39 -229 -104 -299 -109 -115
-218 -132 -842 -130 -422 1 -495 8 -603 60 -122 59 -178 165 -191 363 -9 143
-12 896 -3 910 3 6 7 32 8 58 9 188 152 331 354 353 36 4 67 9 69 10 2 2 207
4 457 4 325 1 454 -2 454 -10z"/>
<path d="M2030 2237 c-69 -32 -96 -76 -94 -154 3 -107 98 -174 204 -142 131
39 149 234 27 290 -47 21 -99 23 -137 6z m136 -38 c29 -18 51 -53 55 -89 5
-51 -3 -75 -41 -112 -39 -39 -42 -40 -96 -36 -77 7 -115 44 -122 121 -4 49 -2
57 28 90 50 58 109 66 176 26z"/>
<path d="M1425 2088 c-97 -10 -110 -14 -192 -53 -104 -50 -217 -163 -267 -268
-59 -124 -79 -282 -50 -404 38 -158 165 -320 310 -393 332 -167 727 -5 840
344 38 117 40 284 5 371 -117 290 -351 436 -646 403z m198 -33 c98 -20 200
-78 279 -156 222 -222 222 -578 -1 -799 -227 -226 -576 -226 -801 0 -225 225
-225 575 0 800 140 140 329 196 523 155z"/>
<path d="M1417 1860 c-110 -28 -201 -103 -250 -208 -28 -59 -32 -77 -32 -152
0 -75 4 -93 32 -152 39 -84 97 -142 181 -181 59 -28 77 -32 152 -32 75 0 93 4
152 32 84 39 142 97 181 181 28 59 32 77 32 152 0 75 -4 93 -32 152 -39 83
-97 142 -178 179 -70 33 -172 45 -238 29z m230 -55 c60 -30 131 -104 165 -173
18 -37 23 -63 22 -122 0 -112 -18 -159 -89 -238 -181 -201 -507 -113 -575 156
-18 67 -1 176 35 238 26 45 102 117 148 141 78 40 209 39 294 -2z"/>
<path d="M2971 595 c-39 -174 -93 -278 -195 -381 -87 -87 -182 -136 -341 -175
-100 -24 -106 -27 -62 -28 72 -2 182 26 267 67 106 51 233 177 283 282 42 87
69 195 65 254 l-3 41 -14 -60z"/>
<path d="M10 598 c0 -56 29 -159 65 -233 84 -173 247 -300 439 -342 61 -13 79
-14 89 -4 10 10 6 11 -17 5 -21 -5 -27 -4 -22 5 4 6 1 11 -6 12 -13 1 -17 1
-78 17 -50 14 -160 66 -195 93 -74 58 -137 137 -179 224 -38 78 -50 117 -72
233 -7 34 -24 26 -24 -10z"/>
</g>
</svg>
