<?xml version="1.0" standalone="no"?>
<!DOCTYPE svg PUBLIC "-//W3C//DTD SVG 20010904//EN"
 "http://www.w3.org/TR/2001/REC-SVG-20010904/DTD/svg10.dtd">
<svg version="1.0" xmlns="http://www.w3.org/2000/svg"
 width="300.000000pt" height="300.000000pt" viewBox="0 0 300.000000 300.000000"
 preserveAspectRatio="xMidYMid meet">
<metadata>
Created by potrace 1.10, written by Peter Selinger 2001-2011
</metadata>
<g transform="translate(0.000000,300.000000) scale(0.100000,-0.100000)"
fill="#000000" stroke="none">
<path d="M162 2818 c-2 -38 -2 -38 36 -36 36 1 36 1 5 5 -27 4 -32 9 -36 36
-4 31 -4 31 -5 -5z"/>
<path d="M162 2518 c-2 -35 0 -38 26 -37 22 1 23 2 5 6 -16 3 -23 13 -26 36
-4 31 -4 31 -5 -5z"/>
<path d="M1348 2350 c-262 -47 -500 -226 -620 -465 -14 -27 -38 -88 -54 -135
-26 -79 -28 -96 -28 -245 0 -186 11 -239 79 -382 243 -503 892 -644 1329 -287
118 96 225 258 276 419 34 108 40 319 11 439 -74 309 -300 546 -607 637 -78
23 -304 34 -386 19z m392 -65 c221 -70 387 -208 491 -408 22 -43 50 -109 61
-145 26 -86 36 -296 18 -384 -70 -362 -364 -630 -730 -668 -328 -33 -661 148
-810 440 -70 139 -85 205 -85 375 0 173 13 234 74 360 117 238 317 394 581
450 105 23 295 13 400 -20z"/>
<path d="M1051 1972 c-18 -4 -40 -16 -47 -27 -18 -28 -7 -48 119 -213 56 -73
123 -161 149 -195 27 -34 48 -69 48 -77 -1 -8 -44 -65 -98 -126 -210 -239
-207 -235 -198 -270 8 -30 41 -44 102 -44 55 0 91 17 130 63 146 170 181 207
191 207 12 0 26 -16 143 -168 73 -95 89 -102 243 -102 119 0 127 1 154 24 l28
25 -18 34 c-11 19 -67 97 -125 173 -190 247 -214 282 -205 298 4 7 65 79 135
159 150 171 161 189 131 219 -18 17 -34 21 -93 22 l-72 0 -56 -59 c-32 -33
-82 -89 -113 -124 -35 -41 -60 -62 -67 -57 -7 4 -45 51 -86 104 -108 143 -96
136 -239 138 -67 2 -137 -1 -156 -4z m372 -169 c54 -70 102 -132 106 -136 4
-4 61 53 126 127 l118 136 47 0 c26 0 63 3 81 7 33 6 33 5 -45 -83 -43 -49
-117 -134 -166 -189 l-87 -100 188 -248 c104 -137 189 -250 189 -253 0 -2 -66
-4 -147 -4 l-148 1 -116 154 -116 154 -134 -155 -134 -154 -72 0 c-40 0 -73 3
-73 7 0 4 20 28 44 53 59 60 296 333 296 340 0 3 -81 110 -180 238 -99 128
-180 234 -180 235 0 1 69 1 152 0 l153 -2 98 -128z"/>
<path d="M1298 1712 c59 -76 179 -233 267 -350 l160 -211 42 -1 42 0 -265 350
-265 350 -44 0 -44 0 107 -138z"/>
<path d="M2455 2250 c-11 -5 -15 -9 -8 -9 6 -1 14 -16 16 -33 l4 -33 1 37 c2
29 6 37 25 41 18 4 19 4 2 5 -11 0 -29 -3 -40 -8z"/>
<path d="M2600 2250 c-15 -5 -19 -8 -8 -9 11 -1 18 -12 21 -33 l4 -33 1 37 c1
20 8 39 15 41 19 8 -5 6 -33 -3z"/>
<path d="M1548 283 c6 -2 12 -15 12 -28 0 -13 -6 -26 -12 -28 -8 -3 -6 -6 5
-6 13 -1 17 7 17 34 0 27 -4 35 -17 34 -11 0 -13 -3 -5 -6z"/>
<path d="M1708 261 c3 -22 0 -30 -15 -34 -15 -4 -14 -5 5 -6 19 -1 22 4 22 34
0 19 -4 35 -8 35 -5 0 -7 -13 -4 -29z"/>
<path d="M2448 283 c6 -2 12 -15 12 -28 0 -13 -6 -26 -12 -28 -8 -3 -6 -6 5
-6 13 -1 17 7 17 34 0 27 -4 35 -17 34 -11 0 -13 -3 -5 -6z"/>
</g>
</svg>
